<svg width="161" height="80" viewBox="0 0 161 80" fill="none" xmlns="http://www.w3.org/2000/svg">
<path d="M24.7709 54.4883C24.7709 53.2461 24.1498 52.2734 22.9077 51.5703C21.6889 50.8438 19.7202 50.1992 17.0014 49.6367C7.95453 47.7383 3.43109 43.8945 3.43109 38.1055C3.43109 34.7305 4.82562 31.918 7.61469 29.668C10.4272 27.3945 14.0952 26.2578 18.6186 26.2578C23.4467 26.2578 27.3022 27.3945 30.185 29.668C33.0912 31.9414 34.5444 34.8945 34.5444 38.5273H24.3842C24.3842 37.0742 23.9155 35.8789 22.978 34.9414C22.0405 33.9805 20.5756 33.5 18.5834 33.5C16.8725 33.5 15.5483 33.8867 14.6108 34.6602C13.6733 35.4336 13.2045 36.418 13.2045 37.6133C13.2045 38.7383 13.7319 39.6523 14.7866 40.3555C15.8647 41.0352 17.6694 41.6328 20.2006 42.1484C22.7319 42.6406 24.8647 43.2031 26.5991 43.8359C31.9662 45.8047 34.6498 49.2148 34.6498 54.0664C34.6498 57.5352 33.1616 60.3477 30.185 62.5039C27.2084 64.6367 23.3647 65.7031 18.6537 65.7031C15.4662 65.7031 12.6303 65.1406 10.1459 64.0156C7.685 62.8672 5.7514 61.3086 4.34515 59.3398C2.9389 57.3477 2.23578 55.2031 2.23578 52.9062H11.8686C11.9623 54.7109 12.6303 56.0938 13.8725 57.0547C15.1147 58.0156 16.7787 58.4961 18.8647 58.4961C20.81 58.4961 22.2748 58.1328 23.2592 57.4062C24.267 56.6562 24.7709 55.6836 24.7709 54.4883ZM54.1081 17.6094V26.9609H60.612V34.4141H54.1081V53.3984C54.1081 54.8047 54.3777 55.8125 54.9167 56.4219C55.4558 57.0312 56.487 57.3359 58.0105 57.3359C59.1355 57.3359 60.1316 57.2539 60.9987 57.0898V64.7891C59.0066 65.3984 56.9558 65.7031 54.8464 65.7031C47.7214 65.7031 44.0886 62.1055 43.948 54.9102V34.4141H38.3933V26.9609H43.948V17.6094H54.1081ZM77.7148 65H67.5195V26.9609H77.7148V65ZM66.9219 17.1172C66.9219 15.5938 67.4258 14.3398 68.4336 13.3555C69.4648 12.3711 70.8594 11.8789 72.6172 11.8789C74.3516 11.8789 75.7344 12.3711 76.7656 13.3555C77.7969 14.3398 78.3125 15.5938 78.3125 17.1172C78.3125 18.6641 77.7852 19.9297 76.7305 20.9141C75.6992 21.8984 74.3281 22.3906 72.6172 22.3906C70.9062 22.3906 69.5234 21.8984 68.4687 20.9141C67.4375 19.9297 66.9219 18.6641 66.9219 17.1172ZM97.5598 65H87.3645V11H97.5598V65ZM124.19 65.7031C118.612 65.7031 114.065 63.9922 110.549 60.5703C107.057 57.1484 105.311 52.5898 105.311 46.8945V45.9102C105.311 42.0898 106.049 38.6797 107.526 35.6797C109.002 32.6562 111.088 30.3359 113.784 28.7188C116.502 27.0781 119.596 26.2578 123.065 26.2578C128.268 26.2578 132.358 27.8984 135.335 31.1797C138.335 34.4609 139.835 39.1133 139.835 45.1367V49.2852H115.612C115.94 51.7695 116.924 53.7617 118.565 55.2617C120.229 56.7617 122.327 57.5117 124.858 57.5117C128.772 57.5117 131.831 56.0938 134.034 53.2578L139.026 58.8477C137.502 61.0039 135.44 62.6914 132.838 63.9102C130.237 65.1055 127.354 65.7031 124.19 65.7031ZM123.03 34.4844C121.014 34.4844 119.374 35.1641 118.108 36.5234C116.866 37.8828 116.069 39.8281 115.717 42.3594H129.85V41.5508C129.803 39.3008 129.194 37.5664 128.022 36.3477C126.85 35.1055 125.186 34.4844 123.03 34.4844Z" fill="black"/>
<rect x="149" y="51" width="12" height="12" fill="#FFBF60"/>
</svg>
